<svg width="91" height="53" viewBox="0 0 91 53" fill="none" xmlns="http://www.w3.org/2000/svg">
<path d="M38.6069 8.44992C38.4127 5.01905 41.7788 2.62392 44.9508 2.62392C46.3102 2.62392 47.6696 2.62392 49.029 2.62392C52.2009 2.62392 55.567 5.01905 55.3728 8.44992C54.9197 18.2247 54.4018 27.9347 53.9487 37.7094C53.884 39.5867 52.9777 40.9461 50.971 40.9461C50.9062 40.9461 50.9062 40.9461 50.8415 40.9461C48.77 40.9461 47.8638 39.4572 47.9285 37.5152C47.9932 28.4525 47.9932 19.3899 48.058 10.3272C48.058 9.80932 47.6048 9.29146 47.087 9.29146C46.5044 9.29146 45.9218 9.67986 45.9218 10.3272C45.9865 19.3899 46.0512 28.4525 46.116 37.5152C46.1807 39.4572 45.2744 40.9461 43.1382 40.9461C43.0735 40.9461 43.0735 40.9461 43.0088 40.9461C41.002 40.9461 40.0958 39.5867 40.031 37.7094C39.5779 27.9347 39.06 18.2247 38.6069 8.44992ZM43.3324 49.5556C45.7923 49.4909 48.1874 49.4909 50.5826 49.5556C52.7188 49.5556 53.4956 48.0667 53.4956 46.3189C53.625 44.4417 52.8482 42.8881 50.7768 42.8881C48.2522 42.8233 45.7276 42.8233 43.1382 42.8881C41.0668 42.8881 40.29 44.4417 40.4194 46.3189C40.4842 48.0667 41.261 49.5556 43.3324 49.5556Z" fill="white"/>
<path d="M49.0288 0C51.2363 1.0417e-05 53.4715 0.819362 55.1586 2.24779C56.8713 3.69795 58.1358 5.89633 57.9936 8.57132L57.9937 8.57141C57.7669 13.4641 57.524 18.3398 57.2812 23.2102C57.0384 28.0822 56.796 32.9489 56.5696 37.8309C56.5206 39.118 56.1767 40.5602 55.1921 41.7253C55.0881 41.8483 54.9797 41.9647 54.8674 42.075C54.9515 42.1767 55.0323 42.2827 55.1096 42.3929C55.9911 43.6499 56.1924 45.1396 56.1186 46.4083C56.1059 47.5975 55.8355 49.0197 54.9081 50.2075C53.8723 51.5341 52.3238 52.1795 50.5824 52.1795H50.547L50.5115 52.1786C48.1643 52.1152 45.8157 52.1151 43.4012 52.1786L43.3668 52.1795H43.3323C41.5893 52.1795 40.0724 51.5104 39.0551 50.2075C38.1382 49.0332 37.8474 47.6247 37.7989 46.4548C37.7175 45.1761 37.9128 43.6653 38.805 42.3929C38.8913 42.27 38.982 42.1524 39.0766 42.04C38.9769 41.9402 38.8803 41.8354 38.7873 41.7253C37.8027 40.5602 37.4588 39.118 37.4098 37.8309L37.3241 36.0008C37.1228 31.7321 36.9106 27.4732 36.6981 23.2102C36.4554 18.3398 36.2125 13.4641 35.9857 8.57141L35.9858 8.57132C35.8436 5.89633 37.108 3.69795 38.8208 2.24779C40.5079 0.819362 42.7431 1.07961e-05 44.9505 0V2.62392C41.7786 2.62394 38.4125 5.01907 38.6067 8.44992C39.0599 18.2246 39.5777 27.9346 40.0308 37.7094C40.0956 39.5866 41.0018 40.946 43.0085 40.946H43.1381C45.2743 40.946 46.1805 39.4572 46.1158 37.5152L45.9216 10.3272C45.9216 9.67984 46.5042 9.29145 47.0868 9.29145C47.6047 9.29147 48.0578 9.80932 48.0578 10.3272C47.9931 19.3898 47.9931 28.4525 47.9284 37.5152C47.8636 39.4572 48.7699 40.946 50.8413 40.946H50.9708C52.9775 40.946 53.8838 39.5866 53.9486 37.7094C54.4017 27.9346 54.9195 18.2246 55.3726 8.44992C55.5653 5.04587 52.2531 2.66138 49.1032 2.62431L49.0288 2.62392V0ZM50.7765 42.888C48.252 42.8233 45.7274 42.8233 43.1381 42.888L43.0419 42.8892C41.0425 42.9367 40.2918 44.4711 40.4192 46.319C40.4829 48.0395 41.2367 49.509 43.2361 49.5545L43.3323 49.5557C45.6384 49.495 47.8876 49.4911 50.1333 49.5442L50.5824 49.5557C52.6852 49.5557 53.4708 48.1129 53.4948 46.4007L53.4954 46.319C53.6249 44.4417 52.848 42.888 50.7765 42.888ZM49.0288 0V2.62392H44.9505V0H49.0288Z" fill="#1E1E1E"/>
<path d="M27.2911 47.6755C29.7918 47.6094 32.2267 47.6094 34.6617 47.6755C36.8334 47.6755 37.6231 46.1542 37.6231 44.3683C37.7547 42.4501 36.965 40.8626 34.8591 40.8626C32.2925 40.7965 29.726 40.7965 27.0936 40.8626C24.9877 40.8626 24.198 42.4501 24.3296 44.3683C24.3954 46.1542 25.1852 47.6755 27.2911 47.6755Z" fill="#FF9E3D"/>
<path d="M27.053 38.2389C29.7117 38.1725 32.3068 38.1726 34.9027 38.239C36.6792 38.2507 38.2425 38.9761 39.2322 40.3946C40.1181 41.6643 40.3211 43.1703 40.2465 44.4569C40.234 45.6626 39.9617 47.1009 39.029 48.3014C37.9874 49.6422 36.426 50.2994 34.6618 50.2994H34.6263L34.5906 50.2984C32.2038 50.2336 29.8157 50.2336 27.3606 50.2985L27.3259 50.2994H27.2912C25.5259 50.2994 23.9965 49.6183 22.9734 48.3014C22.0521 47.1155 21.7587 45.6923 21.7096 44.5062C21.6268 43.209 21.8236 41.6806 22.7209 40.3946C23.7112 38.9754 25.2754 38.2499 27.053 38.2389ZM34.8592 40.8626C32.2927 40.7964 29.7261 40.7964 27.0938 40.8626C24.9879 40.8626 24.1981 42.4501 24.3298 44.3683C24.3956 46.1542 25.1853 47.6755 27.2912 47.6755C29.792 47.6094 32.2269 47.6094 34.6618 47.6755C36.7996 47.6755 37.5983 46.2013 37.6227 44.4518L37.6233 44.3683C37.7549 42.4501 36.9651 40.8626 34.8592 40.8626Z" fill="#1E1E1E"/>
<path d="M10.1066 28.0759C10.4292 28.0759 10.8164 28.0759 11.139 28.0759C11.6552 28.0759 12.0424 27.5577 12.0424 27.0396C12.1069 21.47 12.1069 15.9003 12.1714 10.3306C12.1714 9.81249 11.7197 9.29438 11.139 9.29438C10.7518 9.29438 10.3647 9.29438 9.97753 9.29438C10.0421 15.5765 10.0421 21.7938 10.1066 28.0759ZM11.9133 46.2097C11.9133 42.7772 11.9778 39.28 11.9778 35.8475C12.0424 35.3294 11.6552 34.7465 11.139 34.7465C10.8164 34.7465 10.4937 34.7465 10.1711 34.7465C10.1711 38.5676 10.1711 42.3886 10.2356 46.2097C10.3002 48.0231 9.52585 49.5774 7.52554 49.5774C5.39619 49.5774 4.62188 48.0878 4.55735 46.3392C3.91209 33.257 3.26683 20.2394 2.62157 7.15718C2.42799 4.04852 4.4283 2.68849 7.26744 2.68849C9.20322 2.62372 11.139 2.62372 13.0748 2.62372C16.3656 2.62372 19.5274 5.08475 19.4628 8.45246C19.1402 15.0584 18.8176 21.5995 18.4949 28.2054C18.2368 29.6302 16.6237 31.2493 15.2041 31.4436C16.6882 31.6379 18.1078 33.5808 18.1078 35.1351C17.9142 38.8266 17.7852 42.5829 17.5916 46.3392C17.5271 48.0878 16.7528 49.5774 14.6234 49.5774C12.6231 49.5774 11.8488 48.0231 11.9133 46.2097Z" fill="white"/>
<path d="M13.0732 0.0151863C17.4014 0.0151904 22.1708 3.2878 22.0707 8.51412L22.07 8.55314L22.0681 8.5921C21.9068 11.8933 21.7456 15.1783 21.5844 18.4629C21.4232 21.7477 21.2619 25.032 21.1007 28.3325L21.0924 28.5042L21.0617 28.6734C20.8555 29.8119 20.2704 30.8294 19.5997 31.6266C20.2377 32.6024 20.717 33.8358 20.717 35.1293V35.1983L20.7134 35.2672C20.6174 37.0977 20.5373 38.9465 20.4566 40.817C20.3761 42.6836 20.295 44.5719 20.1976 46.4619C20.1494 47.6315 19.8591 49.0509 18.9244 50.2317C17.8905 51.5377 16.3614 52.1859 14.6208 52.1859C13.2401 52.1859 12.0089 51.7357 11.074 50.8854C10.1391 51.7356 8.90796 52.1859 7.52731 52.1859C5.78678 52.1859 4.25762 51.5377 3.22374 50.2317C2.28745 49.049 1.99775 47.6268 1.95025 46.4561L1.46658 36.6609C1.30537 33.3986 1.1442 30.1382 0.982983 26.8779C0.821768 23.6175 0.660538 20.357 0.499319 17.0945L0.0156541 7.29896C-0.111266 5.13423 0.529392 3.16556 2.09135 1.79573C3.55615 0.511128 5.45642 0.0874534 7.22232 0.0800863C9.19425 0.0149954 11.1588 0.0151863 13.0732 0.0151863ZM13.0732 2.63864C11.1386 2.63864 9.20397 2.63862 7.26938 2.70334C4.43198 2.70334 2.43287 4.06254 2.62633 7.16922C3.27119 20.2432 3.91606 33.2524 4.56092 46.3264C4.62491 48.0602 5.38723 49.5392 7.4777 49.5622L7.52731 49.5625C9.52639 49.5625 10.3003 48.0091 10.2358 46.1969C10.1713 42.3783 10.1712 38.5596 10.1712 34.741H11.1386C11.6544 34.741 12.0414 35.3235 11.9769 35.8413C11.9769 39.2716 11.9124 42.7666 11.9124 46.1969C11.8484 47.995 12.6097 49.5382 14.5742 49.5622L14.6208 49.5625C16.7489 49.5625 17.5227 48.0739 17.5872 46.3264C17.7807 42.5724 17.9096 38.8185 18.1031 35.1293C18.1031 33.576 16.6844 31.6343 15.2012 31.4402C16.6199 31.246 18.2321 29.6279 18.49 28.204C18.7318 23.2528 18.9737 18.3379 19.2155 13.4048L19.4573 8.46367C19.5212 5.12439 16.4111 2.67713 13.1502 2.6391L13.0732 2.63864ZM11.1386 9.30507C11.7189 9.30508 12.1704 9.82287 12.1704 10.3406C12.1059 15.9068 12.1058 21.4729 12.0414 27.0391C12.0414 27.5568 11.6544 28.0746 11.1386 28.0746H10.1068L10.0968 27.0391C10.0422 21.1127 10.0388 15.2378 9.97783 9.30507H11.1386Z" fill="#1E1E1E"/>
<path d="M22.4568 35.4437C22.0037 25.669 21.5505 15.959 21.0327 6.18425C20.9032 3.78912 22.4568 2.75339 24.6577 2.68866C24.7225 2.68866 24.7872 2.68866 24.8519 2.68866C26.9881 2.68866 28.477 3.65966 28.4123 5.99006C28.477 15.0527 28.5417 24.1154 28.6065 33.1133C28.6065 33.6312 28.9949 34.1491 29.5127 34.2138C29.5127 34.2138 29.5775 34.2138 29.6422 34.2138C30.1601 34.1491 30.4837 33.6312 30.4837 33.1781C30.5485 24.0507 30.6132 14.988 30.6779 5.92532C30.6132 3.65966 32.1021 2.68866 34.2383 2.68866C34.303 2.68866 34.3678 2.68866 34.4325 2.68866C36.6334 2.75339 38.2517 3.78912 38.0575 6.18425C37.6044 15.959 37.0865 25.669 36.6334 35.4437C36.504 38.2273 34.1088 40.8813 31.2605 40.8813C30.0953 40.8813 28.9949 40.8813 27.9591 40.8813C24.9814 40.8813 22.5863 38.2273 22.4568 35.4437ZM25.8877 49.5556C28.3475 49.4909 30.7427 49.4909 33.1378 49.5556C35.274 49.5556 36.0508 48.0667 36.0508 46.3189C36.1803 44.4417 35.4035 42.8881 33.332 42.8881C30.8074 42.8233 28.2828 42.8233 25.6935 42.8881C23.622 42.8881 22.8452 44.4417 22.9747 46.3189C23.0394 48.0667 23.8162 49.5556 25.8877 49.5556Z" fill="white"/>
<path d="M24.852 0.0647335V2.68865H24.6578C22.4569 2.75339 20.9033 3.78914 21.0328 6.18427C21.5506 15.959 22.0037 25.669 22.4569 35.4437C22.5863 38.2272 24.9815 40.8813 27.9593 40.8813H31.2606C34.0866 40.8813 36.4665 38.2686 36.63 35.509L36.6335 35.4437C37.0867 25.669 37.6045 15.959 38.0576 6.18427C38.2518 3.78915 36.6335 2.75339 34.4326 2.68865H34.2384V0.0647335H34.4712L34.5097 0.0659092C35.9403 0.107985 37.576 0.468509 38.859 1.5773C40.2442 2.77444 40.8141 4.4883 40.677 6.34309C40.4506 11.2232 40.2083 16.0865 39.9662 20.9446C39.7234 25.8165 39.4809 30.6831 39.2546 35.5652V35.5656C39.1568 37.6692 38.1683 39.7737 36.5972 41.2871C37.0003 41.5891 37.36 41.9578 37.6651 42.3929C38.5468 43.65 38.7479 45.14 38.6741 46.4088C38.6613 47.5979 38.3909 49.02 37.4636 50.2076C36.4278 51.5341 34.8793 52.1795 33.1379 52.1795H33.1025L33.067 52.1786C30.7197 52.1151 28.3713 52.115 25.9568 52.1786L25.9223 52.1795H25.8877C24.1448 52.1795 22.628 51.5104 21.6107 50.2076C20.6938 49.0333 20.4029 47.6249 20.3544 46.4549C20.273 45.1762 20.4682 43.6653 21.3605 42.3929C21.6776 41.9407 22.0536 41.5603 22.476 41.2518C20.912 39.7483 19.9336 37.6679 19.8358 35.5656V35.5652C19.3826 25.7899 18.9298 16.088 18.4125 6.32311L18.4126 6.32301C18.3144 4.49487 18.8705 2.7893 20.2436 1.58788C21.5195 0.471494 23.1442 0.108159 24.5807 0.0659092L24.6192 0.0647335H24.852ZM33.3321 42.8881C30.8075 42.8234 28.2829 42.8234 25.6935 42.8881C23.6221 42.8881 22.8453 44.4417 22.9748 46.319C23.0385 48.0394 23.7922 49.509 25.7916 49.5545L25.8877 49.5556C28.1939 49.4949 30.4431 49.4912 32.6888 49.5443L33.1379 49.5556C35.2407 49.5556 36.0263 48.1129 36.0503 46.4007L36.0509 46.319C36.1803 44.4417 35.4036 42.8881 33.3321 42.8881ZM34.2384 2.68865L34.1387 2.68934C32.056 2.7193 30.6143 3.69507 30.678 5.92532C30.6133 14.988 30.5486 24.0507 30.4838 33.1781C30.4838 33.6312 30.1602 34.1491 29.6423 34.2138H29.5129L29.4647 34.2064C28.987 34.1195 28.6302 33.6469 28.6077 33.1618L28.6066 33.1133C28.5419 24.1154 28.4771 15.0527 28.4124 5.99008C28.4771 3.65968 26.9882 2.68865 24.852 2.68865V0.0647335C26.2615 0.0647335 27.8709 0.377998 29.1524 1.46237C29.2897 1.57851 29.4186 1.69991 29.5398 1.82577C29.6686 1.69226 29.8063 1.56397 29.9531 1.4416C31.2293 0.378098 32.8284 0.0647335 34.2384 0.0647335V2.68865Z" fill="#1E1E1E"/>
<path d="M79.8375 28.5108C79.5159 22.4805 79.2345 16.41 78.9129 10.3797C78.7922 8.24896 80.923 6.76149 82.8526 6.76149C83.6969 6.76149 84.5411 6.76149 85.3854 6.76149C87.3553 6.76149 89.486 8.24896 89.3654 10.3797C89.0438 16.41 88.7623 22.4805 88.4407 28.551C88.4005 29.7168 87.8377 30.5209 86.6718 30.5209C86.6316 30.5209 86.5512 30.5209 86.4306 30.5209C85.1844 30.5209 84.6617 29.5962 84.7019 28.4304C84.7019 27.1841 84.7019 25.8976 84.7421 24.6514C84.3401 24.6514 83.9381 24.6514 83.5361 24.6514C83.5361 25.8976 83.5763 27.1841 83.5763 28.4304C83.6165 29.6364 83.0537 30.5209 81.7672 30.5209C80.4405 30.6013 79.8777 29.7168 79.8375 28.5108ZM83.4557 11.5455C83.4959 14.5205 83.4959 17.4954 83.5361 20.5106C83.9381 20.5106 84.3401 20.5106 84.7421 20.5106C84.7823 17.5356 84.7823 14.5205 84.8225 11.5455C84.8225 11.2239 84.5411 10.9023 84.1793 10.9023C83.8175 10.9023 83.4557 11.1435 83.4557 11.5455ZM81.8878 35.9079C83.3753 35.8677 84.8627 35.8677 86.3502 35.9079C87.6769 35.9079 88.1593 34.9833 88.1995 33.8978C88.2799 32.732 87.7975 31.7671 86.4708 31.7671C84.9029 31.7269 83.3351 31.7269 81.7672 31.7671C80.4405 31.7671 79.9581 32.732 80.0385 33.8978C80.0787 34.9833 80.5611 35.9079 81.8878 35.9079Z" fill="#FF9E3D"/>
<path d="M85.3855 5.13194C86.7544 5.13195 88.1489 5.63924 89.2043 6.52105C90.2775 7.41773 91.0858 8.78786 90.9926 10.4664C90.6676 16.5602 90.3939 22.4884 90.0681 28.6372C90.0361 29.435 89.8214 30.3132 89.2259 31.0217C89.1618 31.098 89.0947 31.1701 89.0253 31.2385C89.0822 31.3053 89.1368 31.3751 89.189 31.4481C89.7569 32.2432 89.8775 33.1889 89.8269 33.9827C89.7968 34.7091 89.6159 35.5905 89.0333 36.3237C88.3888 37.1349 87.4354 37.5375 86.3503 37.5375H86.3284L86.3063 37.5369C84.8482 37.4975 83.3901 37.4975 81.9319 37.5369L81.9099 37.5375H81.8879C80.8029 37.5375 79.8495 37.1349 79.2049 36.3237C78.6224 35.5905 78.4415 34.7091 78.4113 33.9827C78.3607 33.1889 78.4814 32.2432 79.0493 31.4481C79.1066 31.3679 79.167 31.2914 79.23 31.2186C79.1805 31.1684 79.1322 31.116 79.0852 31.0615C78.4457 30.3188 78.2394 29.3868 78.2098 28.5857C78.049 25.5711 77.8983 22.5471 77.7477 19.5263C77.597 16.5006 77.4464 13.4783 77.2858 10.4665L77.2859 10.4664C77.1928 8.78878 78.0001 7.42022 79.0651 6.52448C80.1121 5.64391 81.497 5.13195 82.8527 5.13194V6.76149C80.923 6.76151 78.7924 8.24899 78.913 10.3797C79.2346 16.41 79.516 22.4805 79.8376 28.5108C79.8778 29.7168 80.4407 30.6013 81.7673 30.5209C83.0538 30.5209 83.6166 29.6364 83.5764 28.4304C83.5764 27.1841 83.5362 25.8976 83.5362 24.6514H84.7422C84.702 25.8976 84.702 27.1841 84.702 28.4304C84.6618 29.5962 85.1845 30.5209 86.4307 30.5209H86.672C87.8378 30.5209 88.4006 29.7168 88.4408 28.551C88.7625 22.4805 89.0438 16.41 89.3654 10.3797C89.4842 8.28226 87.4214 6.80811 85.4779 6.76257L85.3855 6.76149V5.13194ZM86.4709 31.7672C84.9031 31.727 83.3352 31.727 81.7673 31.7672C80.4407 31.7672 79.9582 32.732 80.0386 33.8979C80.0782 34.9663 80.5463 35.879 81.8263 35.9073L81.8879 35.908C83.2825 35.8703 84.677 35.8679 86.0715 35.9009L86.3503 35.908C87.677 35.908 88.1594 34.9833 88.1996 33.8979C88.28 32.732 87.7976 31.7672 86.4709 31.7672ZM84.1794 10.9023C84.5412 10.9023 84.8226 11.2239 84.8226 11.5455C84.7824 14.5205 84.7824 17.5356 84.7422 20.5106H83.5362L83.5292 19.9457C83.4959 17.1235 83.4935 14.3345 83.4558 11.5455C83.4558 11.1435 83.8176 10.9023 84.1794 10.9023ZM85.3855 5.13194V6.76149H82.8527V5.13194H85.3855Z" fill="#1E1E1E"/>
<path d="M58.6026 32.4908C58.2408 25.1338 57.879 17.7366 57.5172 10.3797C57.3966 8.24896 59.4871 6.76149 61.457 6.76149C62.3012 6.76149 63.1455 6.76149 63.9897 6.76149C65.9596 6.76149 68.0501 8.24896 67.9295 10.3797C67.5677 17.7366 67.2059 25.1338 66.844 32.4908C66.8038 34.1792 65.4772 35.8677 63.7485 35.8677C63.0249 35.8677 62.4218 35.8677 61.7786 35.8677C59.9695 35.8677 58.6428 34.1792 58.6026 32.4908ZM62.06 11.5455C62.1002 18.0583 62.1404 24.571 62.1806 31.0837C62.1806 31.4053 62.3816 31.7269 62.7032 31.7671C62.7032 31.7671 62.7434 31.7671 62.7836 31.7671C63.0651 31.7269 63.2661 31.4053 63.2661 31.0837C63.3063 24.571 63.3465 18.0583 63.3867 11.5455C63.4269 11.2239 63.1053 10.9023 62.7836 10.9023C62.4218 10.9023 62.06 11.1435 62.06 11.5455Z" fill="#FF9E3D"/>
<path d="M63.9899 5.13194C65.3608 5.13195 66.7489 5.64081 67.7967 6.52791C68.8613 7.42934 69.6471 8.79629 69.5571 10.4596C69.3762 14.138 69.1954 17.8265 69.0145 21.515C68.8337 25.2014 68.6528 28.8878 68.472 32.5642C68.3995 34.8776 66.5796 37.4972 63.7487 37.4972H61.7787C58.8919 37.4972 57.0476 34.9054 56.9749 32.5631C56.7941 28.8871 56.6132 25.201 56.4324 21.515C56.2515 17.8265 56.0706 14.1381 55.8897 10.4597L55.8898 10.4596C55.7999 8.79629 56.5856 7.42934 57.6503 6.52791C58.698 5.6408 60.0862 5.13194 61.4571 5.13194V6.76149C59.4872 6.7615 57.3967 8.24898 57.5173 10.3797C57.8791 17.7366 58.241 25.1338 58.6028 32.4907C58.6424 34.1528 59.9285 35.815 61.6943 35.8665L61.7787 35.8677H63.7487L63.8294 35.8665C65.5185 35.815 66.8046 34.1528 66.8441 32.4907C67.206 25.1338 67.5678 17.7366 67.9296 10.3797C68.0483 8.28227 66.0245 6.80813 64.0823 6.76257L63.9899 6.76149V5.13194ZM62.7838 10.9023C63.1054 10.9023 63.427 11.2239 63.3868 11.5455L63.2662 31.0837L63.2656 31.1138C63.2536 31.4251 63.0564 31.7282 62.7838 31.7672H62.7033L62.6736 31.7626C62.3694 31.7068 62.1807 31.3952 62.1807 31.0837L62.0601 11.5455C62.0601 11.1435 62.422 10.9023 62.7838 10.9023ZM63.9899 5.13194V6.76149H61.4571V5.13194H63.9899Z" fill="#1E1E1E"/>
<path d="M81.8703 35.9681C83.4234 35.927 84.9355 35.927 86.4477 35.9681C87.7965 35.9681 88.2869 35.0233 88.2869 33.9141C88.3686 32.7229 87.8782 31.737 86.5704 31.737C84.9764 31.6959 83.3825 31.6959 81.7477 31.737C80.4398 31.737 79.9494 32.7229 80.0311 33.9141C80.072 35.0233 80.5624 35.9681 81.8703 35.9681Z" fill="white"/>
<path d="M81.7113 30.1079C83.3703 30.0663 84.9893 30.0663 86.6089 30.108C87.7073 30.1183 88.6734 30.5685 89.2859 31.4463C89.8362 32.235 89.9623 33.1706 89.9159 33.9697C89.908 34.7184 89.7388 35.6114 89.1598 36.3567C88.5129 37.1894 87.5432 37.5976 86.4476 37.5976H86.4255L86.4033 37.597C84.921 37.5568 83.438 37.5567 81.9132 37.597L81.8917 37.5976H81.8701C80.7738 37.5976 79.824 37.1746 79.1886 36.3567C78.6159 35.6195 78.4339 34.7348 78.4036 33.9977C78.3526 33.1925 78.475 32.2443 79.0317 31.4463C79.6447 30.5678 80.6119 30.1175 81.7113 30.1079ZM86.5702 31.7369C84.9762 31.6958 83.3823 31.6958 81.7475 31.7369C80.4396 31.7369 79.9492 32.7229 80.0309 33.9142C80.0711 35.0059 80.5471 35.9385 81.8094 35.9674L81.8701 35.9681C83.3261 35.9295 84.7462 35.9271 86.1641 35.9608L86.4476 35.9681C87.7541 35.968 88.2552 35.0814 88.2853 34.0176L88.2867 33.9142C88.3685 32.7229 87.878 31.7369 86.5702 31.7369Z" fill="#1E1E1E"/>
<path d="M72.8585 22.5609C73.0595 22.5609 73.3007 22.5609 73.5017 22.5609C73.8233 22.5609 74.0646 22.2393 74.0646 21.9176C74.1048 18.4603 74.1048 15.0029 74.145 11.5455C74.145 11.2239 73.8635 10.9023 73.5017 10.9023C73.2605 10.9023 73.0193 10.9023 72.7781 10.9023C72.8183 14.8019 72.8183 18.6613 72.8585 22.5609ZM73.9842 33.8174C73.9842 31.6867 74.0244 29.5158 74.0244 27.3851C74.0646 27.0635 73.8233 26.7017 73.5017 26.7017C73.3007 26.7017 73.0997 26.7017 72.8987 26.7017C72.8987 29.0736 72.8987 31.4455 72.9389 33.8174C72.9791 34.9431 72.4967 35.9079 71.2504 35.9079C69.9238 35.9079 69.4413 34.9833 69.4011 33.8978C68.9991 25.777 68.5971 17.6964 68.1951 9.57563C68.0745 7.64593 69.3207 6.80169 71.0896 6.80169C72.2957 6.76149 73.5017 6.76149 74.7078 6.76149C76.7581 6.76149 78.728 8.28917 78.6878 10.3797C78.4868 14.4803 78.2858 18.5407 78.0848 22.6413C77.9239 23.5257 76.9189 24.5308 76.0345 24.6514C76.9591 24.772 77.8435 25.978 77.8435 26.9429C77.7229 29.2344 77.6425 31.5661 77.5219 33.8978C77.4817 34.9833 76.9993 35.9079 75.6726 35.9079C74.4264 35.9079 73.9439 34.9431 73.9842 33.8174Z" fill="#FF9E3D"/>
<path d="M74.7077 5.13194C77.4061 5.13194 80.3794 7.16473 80.317 10.411L80.3165 10.4352L80.3153 10.4594C80.2148 12.51 80.1143 14.5504 80.0138 16.5906C79.9133 18.6309 79.8128 20.671 79.7123 22.721L79.7071 22.8277L79.688 22.9328C79.5594 23.64 79.1946 24.2721 78.7764 24.7673C79.1741 25.3734 79.473 26.1394 79.473 26.9429V26.9858L79.4708 27.0285C79.4109 28.1655 79.361 29.3139 79.3107 30.4757C79.2606 31.6327 79.2101 32.8031 79.1495 33.9746C79.1204 34.7025 78.9402 35.5877 78.3555 36.3237C77.711 37.1349 76.7577 37.5375 75.6726 37.5375C74.8119 37.5375 74.0443 37.2578 73.4615 36.7297C72.8786 37.2578 72.1111 37.5375 71.2504 37.5375C70.1653 37.5375 69.212 37.1349 68.5674 36.3237C67.9837 35.589 67.8031 34.7056 67.7735 33.9784L67.1705 21.8175C66.9695 17.7672 66.7685 13.7167 66.5675 9.65622L66.5676 9.65612C66.4885 8.31154 66.8878 7.08874 67.8615 6.2379C68.7743 5.4403 69.9584 5.17719 71.0589 5.1724C72.2887 5.13192 73.5138 5.13194 74.7077 5.13194ZM74.7077 6.76149C73.5017 6.76149 72.2956 6.76145 71.0895 6.80166C69.3207 6.80167 68.0744 7.64593 68.195 9.57558C68.597 17.6964 68.9991 25.7771 69.4011 33.8979C69.4407 34.9663 69.9088 35.879 71.1888 35.9073L71.2504 35.908C72.4967 35.9079 72.9791 34.9431 72.9389 33.8174C72.8987 31.4455 72.8987 29.0736 72.8987 26.7017H73.5017C73.8233 26.7017 74.0645 27.0635 74.0243 27.3851C74.0243 29.5158 73.9841 31.6867 73.9841 33.8174C73.9445 34.9255 74.4114 35.8778 75.6147 35.9073L75.6726 35.908C76.9993 35.908 77.4817 34.9833 77.5219 33.8979C77.6425 31.5661 77.7229 29.2344 77.8435 26.9429C77.8435 25.978 76.9591 24.772 76.0344 24.6514C76.9051 24.5327 77.8925 23.5569 78.0766 22.6828L78.0847 22.6413C78.1852 20.591 78.2858 18.5507 78.3863 16.5105L78.6878 10.3797C78.728 8.28917 76.758 6.76149 74.7077 6.76149ZM73.5017 10.9023C73.8635 10.9023 74.1449 11.2239 74.145 11.5455C74.1048 15.0029 74.1047 18.4603 74.0645 21.9176C74.0645 22.2392 73.8233 22.5608 73.5017 22.5609H72.8584C72.8182 18.6613 72.8183 14.8019 72.7781 10.9023H73.5017Z" fill="#1E1E1E"/>
</svg>
